# xmcd
#
# Track frame offsets:
#	150
#	15615
#	31767
#	46092
#	64600
#	81590
#	99322
#	114612
#	133642
#	152790
#	169290
#	186550
#
# Disc length: 2737 seconds
#
# Revision: 0
# Processed by: cddbd v1.5PL3 Copyright (c) Steve Scherf et al.
# Submitted via: dBpowerAMP V4.0
#
DISCID=9b0aaf0c
DTITLE=Armando Manzanero - Intinmos
DYEAR=1900
DGENRE=Latin
TTITLE0=Será Que Hoy
TTITLE1=Que Ni Me Entere
TTITLE2=No Ha Pasado Nada
TTITLE3=Esperare/El Ciego
TTITLE4=Quién Me Viera
TTITLE5=Hoy Que Hace Frío
TTITLE6=Mi Cama, Mi Almohada
TTITLE7=Mía/Perdóname
TTITLE8=Cuando Pienso En Tí
TTITLE9=Aquél Señor
TTITLE10=Quién Da Un Peso Por Mis Sueños
TTITLE11=Qué Tristeza
EXTD=
EXTT0=
EXTT1=
EXTT2=
EXTT3=
EXTT4=
EXTT5=
EXTT6=
EXTT7=
EXTT8=
EXTT9=
EXTT10=
EXTT11=
PLAYORDER=
